<svg xmlns="http://www.w3.org/2000/svg" version="1.1" width="600px" height="600px" viewBox="0 0 200 200" style="overflow:hidden!important;"><g id="svga-group-wrapper"><g id="svga-group-backs-single"><path id="SvgjsPath9127" d="M0 0h200v200H0V0z" fill="#9c9912" stroke-width="none" opacity="1" stroke="none"></path><path id="SvgjsPath9128" d="M100 124.2c-13.3 0-24.2-10.8-24.2-24.2S86.7 75.8 100 75.8s24.2 10.8 24.2 24.2-10.9 24.2-24.2 24.2zm0-42.4c-10 0-18.2 8.2-18.2 18.2s8.2 18.2 18.2 18.2 18.2-8.2 18.2-18.2S110 81.8 100 81.8zm0 57.4c-21.6 0-39.2-17.6-39.2-39.2S78.4 60.8 100 60.8s39.2 17.6 39.2 39.2-17.6 39.2-39.2 39.2zm0-72.4c-18.3 0-33.2 14.9-33.2 33.2s14.9 33.2 33.2 33.2 33.2-14.9 33.2-33.2-14.9-33.2-33.2-33.2zm0 87.5c-29.9 0-54.3-24.4-54.3-54.3S70.1 45.7 100 45.7 154.3 70 154.3 100s-24.4 54.3-54.3 54.3zm0-102.6c-26.6 0-48.3 21.7-48.3 48.3 0 26.6 21.7 48.3 48.3 48.3 26.6 0 48.3-21.7 48.3-48.3 0-26.6-21.7-48.3-48.3-48.3zm0 116.4c-37.6 0-68.1-30.6-68.1-68.1S62.4 31.9 100 31.9s68.1 30.6 68.1 68.1-30.5 68.1-68.1 68.1zm0-130.2c-34.2 0-62.1 27.9-62.1 62.1s27.9 62.1 62.1 62.1 62.1-27.9 62.1-62.1-27.9-62.1-62.1-62.1zm0 146.2c-46.4 0-84.1-37.7-84.1-84.1S53.6 15.9 100 15.9s84.1 37.7 84.1 84.1-37.7 84.1-84.1 84.1zm0-162.2c-43.1 0-78.1 35-78.1 78.1s35 78.1 78.1 78.1 78.1-35.1 78.1-78.1-35-78.1-78.1-78.1zm0 90c-6.6 0-11.9-5.4-11.9-11.9 0-6.6 5.4-11.9 11.9-11.9 6.6 0 11.9 5.4 11.9 11.9 0 6.6-5.3 11.9-11.9 11.9zm0-17.8c-3.3 0-5.9 2.7-5.9 5.9 0 3.3 2.7 5.9 5.9 5.9 3.3 0 5.9-2.7 5.9-5.9 0-3.3-2.6-5.9-5.9-5.9zM0 146.7v12.8c9.9 16.6 23.9 30.6 40.5 40.5h12.8C29.9 189 11 170.1 0 146.7zm200 0c-11 23.4-29.9 42.3-53.3 53.3h12.8c16.6-9.9 30.6-23.9 40.5-40.5v-12.8zm0-93.4V40.5C190.1 23.9 176.1 9.9 159.5 0h-12.8C170.1 11 189 29.9 200 53.3zm-200 0C11 29.9 29.9 11 53.3 0H40.5C23.9 9.9 9.9 23.9 0 40.5v12.8zm200 36.3C195.1 42.5 157.6 4.9 110.4 0H89.6C42.5 4.9 4.9 42.5 0 89.6v20.8c4.9 47.1 42.5 84.7 89.6 89.6h20.8c47.1-4.9 84.7-42.4 89.6-89.6V89.6zM100 194.5c-52.1 0-94.5-42.4-94.5-94.5S47.9 5.5 100 5.5s94.5 42.4 94.5 94.5-42.4 94.5-94.5 94.5zM0 176.2v9.5c4.4 5.1 9.1 9.9 14.3 14.3h9.5c-9-6.8-17-14.8-23.8-23.8zm200 0c-6.8 8.9-14.8 16.9-23.8 23.8h9.5c5.1-4.4 9.9-9.1 14.3-14.3v-9.5zM0 23.8c6.8-9 14.8-17 23.8-23.8h-9.5C9.1 4.4 4.4 9.1 0 14.3v9.5zm200 0v-9.5c-4.4-5.1-9.1-9.9-14.3-14.3h-9.5c9 6.8 17 14.8 23.8 23.8z" fill="#8d8a02" stroke-width="none" opacity="1" stroke="none"></path></g><g id="svga-group-humanwrap-move" transform="matrix(1,0,0,1,0,0)"><g id="svga-group-humanwrap"><g id="svga-group-hair-back-move" transform="matrix(1,0,0,1,0,0)"><g id="svga-group-hair-back"></g></g><g id="svga-group-humanbody-back"><path id="SvgjsPath4325" d="M180.8 184.9c-2.3-3.4-38.9-17.8-38.9-17.8l-13.4-5.2-5.6-68.8H76.8L71.3 162l-13.4 5.2S21.4 181.6 19 185c-2.3 3.4-3.3 14.9-3.3 14.9V219h168.5v-19.2c-.1.1-1-11.5-3.4-14.9z" fill="#f0c7b1" stroke-width="none" opacity="1" stroke="none"></path></g><g id="svga-group-chinshadow-single"><path id="SvgjsPath4321" d="M94.3 163.2s17.4.7 30.2-15c.96-1.2 1.83-2.36 2.64-3.5l-4.2-51.6H76.82l-4.96 62.4c11.08 8.16 22.44 7.7 22.44 7.7z" fill="#d19271" stroke-width="none" opacity="1" stroke="none"></path></g><g id="svga-group-humanbody-front"><path id="SvgjsPath4326" d="M184.5 219c-.1-6.4-.1-12.8-.1-19.2l-.3-.1s.1-.1.2 0c.1 0 .1.1.1.1v-.4l-.1-.5-.1-.9-.2-1.9c-.2-1.3-.4-2.5-.6-3.8-.2-1.3-.5-2.5-.9-3.8-.4-1.2-.8-2.5-1.5-3.6-.8-.9-1.9-1.5-2.9-2.1-1-.6-2.1-1.1-3.2-1.7-2.1-1.1-4.3-2.1-6.5-3.1-4.4-2-8.7-3.9-13.1-5.7-4.4-1.9-8.8-3.7-13.2-5.5l-13-5.2-1.2-16.9c-.4-5.7-.9-11.5-1.3-17.2l-1.3-17.2-1.5-17.3-.1-.8h-.8c-7.7 0-15.4.1-23.1.1l-23.1.2h-.5v.5L75 110.2l-1.3 17.2c-.8 11.4-1.8 22.8-2.8 34.2-5.6 2.1-11.2 4.2-16.7 6.4-5.6 2.2-11.2 4.5-16.8 6.9-2.8 1.2-5.6 2.4-8.3 3.6-2.8 1.3-5.5 2.5-8.2 4.1-.7.4-1.3.8-2 1.4-.2.1-.4.4-.5.6l-.3.6c-.2.4-.4.7-.5 1.1-.6 1.5-1 3-1.3 4.5-.6 3-1.1 6-1.4 9.1l-.1 19.1v.9h.9l42.1.1H100c14 0 28.1-.1 42.1-.2l42.1-.5h.3v-.3zm-84.5-1-42.1-.1-41.2.1-.1-18.1c.3-3 .6-5.9 1.2-8.9.3-1.4.6-2.9 1.1-4.2.1-.3.3-.7.4-.9l.2-.4.3-.3c.5-.4 1.1-.8 1.8-1.2 2.5-1.5 5.3-2.8 8-4.1 2.7-1.3 5.5-2.5 8.2-3.7 5.5-2.4 11.1-4.8 16.7-7.1s11.2-4.5 16.9-6.7l.2-.1v-.2c.9-11.5 1.7-23 2.7-34.4l1.4-17.2 1.5-16.7 22.6.2c7.4.1 14.8.1 22.3.1l1.3 16.4 1.5 17.2c.5 5.7 1 11.5 1.5 17.2l1.6 17.2v.3l.3.1 13.4 5c4.4 1.7 8.9 3.4 13.3 5.2 4.4 1.8 8.8 3.7 13.2 5.6 2.2 1 4.3 2 6.5 3 1.1.5 2.1 1.1 3.2 1.6 1 .6 2.1 1.2 2.9 2 .7 1.1 1.1 2.3 1.4 3.5.3 1.2.6 2.5.8 3.7.2 1.3.4 2.5.6 3.8l.2 1.9.1.9.1.5v.4c0 6.3 0 12.6-.1 18.9l-41.8-.5c-14 .1-28.1 0-42.1 0z" fill="#c27b55" stroke-width="none" opacity="1" stroke="none"></path><path id="SvgjsPath4327" d="M125.1 142.4s-1.8 23-9.1 32.9c0 0 7.9-25 9.1-32.9zm-34.5 16s5 7.9 11.5 10.1c0 0-9.5 2.2-11.5-10.1zM73.4 140c6.7 25.6 6.7 25.6 8.5 30.7 0 0 .4-12.6-8.5-30.7z" fill="#d19271" stroke-width="none" opacity="1" stroke="none"></path></g><g id="svga-group-clothes-single"><path id="SvgjsPath8863" d="m71.9 145.1-6.2 2.5-.7 14.1v20.2L79 220h42l10.7-34.3 3.4-25.5-1.7-14.2-5.4-.8-.3 9.2s-26.2 22.2-26.6 22.7-29.2-22.8-29.2-22.8v-9.2z" fill="#eaeaea" stroke-width="none" opacity="1"></path><path id="SvgjsPath8864" d="m127.8 155.4.8-.3 4.9-9-5.5-.9-.2 10.2zm-56.3-1.6h-.4l-5.2-6.1 6.3-2.6-.7 8.7z" fill="#c9c9c9" stroke-width="none" opacity="1"></path><path id="SvgjsPath8865" d="m44.6 168 1.1 1.7s-24.9 7.2-29 9c0 0-4.4-3.1-6 3.4-1.6 6.5-3.8 30.8-3.8 37.9h72s-8.7-29-14.1-59.9L44.6 168zm144.6 14.1c-1.6-6.5-6-3.4-6-3.4-4.1-1.9-29-9-29-9l1.1-1.7-20.3-7.8c-5.3 30.8-14 59.8-14 59.8h72c.1-7.2-2.2-31.4-3.8-37.9z" fill="#386e77" stroke-width="none" opacity="1"></path><path id="SvgjsPath8866" d="M89 180.6s4.9 12.4 6.4 15.4c0 0-2.8 17.1-2.9 23.8h18s-2.5-20-3.1-24.1c0 0 4.4-11 5.7-13.9 0 0-2.7-3.4-3.8-3.6-1.1-.2-8.7-.8-8.7-.8s-7.3.9-8.7 1.4c-1.4.4-2.9 1.8-2.9 1.8z" fill="#222222" stroke-width="none" opacity="1"></path><path id="SvgjsPath8867" d="M106.9 196c-1.1.5-3.8 1.9-5.2 2.1h-.5c-1.6-.1-4.2-1.3-5.3-1.8v-.2c.6.1 1.6.2 2.9.5 1.7.4 6.5-.4 8.1-.7m-5.5 17.2c1.2 1.5 3.4 2.7 3.1 1-.2-1.7-3.3-15.8-3.4-16-.1.7-.9 13.5.3 15zm-2.8-17.3s-.1-8.9-.6-9.8c-.5-.9-1.7-.1-2.1 1.8-.5 2 2.3 7.6 2.7 8zm-1.8 15.8c.5 2.7 1.9-.4 2.1-3.6.2-3.2-1.1-10.6-1.1-10.6-.2.5-1.5 11.4-1 14.2zm7.4-27.7c-1-1.1-2.5 1.9-2.8 4-.4 2.1-.2 6.3-.2 7.8-.1 0 3.9-10.7 3-11.8zm3.2 6.8c.6-1.2-.6-2.2-1.5-1.7s-1.7 5.3-2.1 7.2c0 0 3-4.2 3.6-5.5zm-2.4 18.4c.5 1 1.9 2.2 2.1 1.5.2-.7-2.7-12.5-2.7-12.5s.1 10 .6 11z" fill="#000000" stroke-width="none" opacity="1"></path><path id="SvgjsPath8868" d="m192.7 208.3-.9-11.6c-.3-3.9-.7-7.8-1.3-11.6-.2-1-.3-1.9-.5-2.9s-.5-2-1.1-3c-.5-1-1.6-1.9-2.9-2.1-.6-.1-1.2 0-1.8.1-.4.1-.8.3-1.2.5-2.3-.9-4.6-1.6-6.8-2.4l-7.3-2.2c-4.6-1.4-9.1-2.7-13.7-3.9l.6-.9.5-.7-.8-.3c-3.5-1.3-7-2.5-10.4-3.8l-9.2-3.2c0-.1 0-.2.1-.4l-2.2-14.2-6-1.4s-.5 4.6-.5 9.7l-13.8 11c-2.2 1.9-4.5 3.8-6.7 5.8l-3.3 2.9-1.7 1.5-.8.8c-2.3-1.6-4.6-3.4-6.9-5.1l-7.1-5.4-14.6-11.4.1-9.8c-.5.5-6.2 2.5-6.8 3v.1l-.6 8.6-.3 4-10 3.5c-3.4 1.2-6.9 2.5-10.4 3.8l-.8.3.5.7.6.9c-4.6 1.2-9.2 2.5-13.7 3.9l-7.3 2.2c-2.3.8-4.5 1.4-6.9 2.4-.4-.2-.7-.4-1.1-.5-.6-.2-1.2-.2-1.8-.1-1.3.2-2.3 1.1-2.8 2-.6 1-.9 2-1.1 3-.2 1-.3 2-.5 2.9-.5 3.9-.9 7.8-1.3 11.6l-.9 11.6c-.3 3.9-.6 7.8-.7 11.7v.3h.3c6 0 12 .1 18 .2l18 .3 18.1.3h78l18-.1c6-.1 12-.1 18-.3 6-.1 12-.2 18-.2h.4v-.4c-.1-3.9-.4-7.8-.7-11.7zm-88.1-33 3.4-2.9 6.8-5.7 13.6-11.5.2-.2-.4-9.6c1.8.4 3.6.8 5 1.1l1.1 13.6-1.1 8.5-1.4 6.4c-1.1 5-2.4 10-3.6 14.9-.7 2.9-1.5 5.9-2.3 8.8-.3-.8-.6-1.6-1-2.4-.3-.7-.6-1.4-1-2.1-.3-.7-.8-1.4-1.2-2-1.8-2.6-3.6-5-5.5-7.4-1-1.2-2-2.4-3-3.5-1.1-1.1-2.1-2.3-3.5-3.3-.3-.2-.7-.5-1.1-.7-.2-.1-.5-.2-.8-.3-.3-.1-.4 0-.6-.1l-2.3-.3-2.5-.3 1.2-1zm-38.8-19.1.2-8.5 5.7-2.1-.6 8.2 1.4 1.6h.1c4.5 3.8 9.1 7.6 13.7 11.3 2.3 1.9 4.6 3.7 6.9 5.6 1.8 1.4 3.5 2.8 5.4 4.2l-2.1.3c-.8.1-1.5.2-2.3.4l-1.2.2c-.2.1-.3.1-.6.1-.3.1-.5.2-.7.3-1.6.9-2.7 2-3.8 3.1-1.1 1.1-2.1 2.3-3.2 3.5-2 2.4-3.9 4.9-5.7 7.4-.9 1.3-1.8 2.6-2.6 3.9-.7 1.1-1.4 2.2-2 3.3-.8-2.9-1.5-5.9-2.3-8.8-1.2-5-2.5-9.9-3.6-14.9l-1.7-7.5-1-4.7c-.2-2.4-.1-4.8 0-6.9zM7.3 219.6c0-3.8.3-7.5.6-11.3.3-3.9.7-7.7 1.2-11.6.5-3.9 1-7.7 1.7-11.5.4-1.9.7-3.9 1.6-5.3.5-.7 1-1.2 1.7-1.2.7-.1 1.5.2 2.1.6l.4.3.4-.2c.6 1.4 1.1 2.7 1.6 4.1.6 1.7 1.1 3.4 1.3 5.1.5 3.5.8 7 1.2 10.5l1.2 10.5.7 5.3.6 4.5c-5.3.1-10.8.2-16.3.2zM61 219l-18 .1c-6 .1-12 .1-18 .3h-1.1c-.1-3.3-.4-6.5-.6-9.8-.3-3.5-.6-7-1-10.6-.4-3.5-.8-7-1.5-10.5-.7-3.2-2-6.3-3.5-9.1 2.2-.9 4.6-1.6 7-2.4l7.2-2.3 14.5-4.5h.1c.3.3.5.6.8.9.8.8 1.6 1.6 2.5 2.3-1.2.6-2.5 1.2-3.7 1.9l-.7.3.3.7c1.6 3.7 3.3 7.4 5 11 1.7 3.7 3.5 7.3 5.2 10.9l5.4 10.8c1.7 3.3 3.4 6.5 5.2 9.7-1.7.3-3.4.3-5.1.3zm5.3 0c-1.3-3.5-2.8-6.9-4.2-10.3-1.6-3.7-3.2-7.4-4.9-11.1-1.7-3.7-3.4-7.3-5.1-11-1.6-3.4-3.3-6.8-5-10.2 2.3-1.4 4.6-2.7 6.9-4.1l7.5-4.7c-1.4.6-2.7 1.2-4 1.8l-4 1.9c-1.3.7-2.7 1.4-4 2-.6-1-1.3-1.9-2-2.8-.5-.7-1.1-1.3-1.6-2l-.3-.4c3-1.2 6.1-2.5 9.1-3.8l10-4.2c0 .5.4 2.5.7 3.7l.3 1.8.3 1.9c.4 2.5.8 5.1 1.3 7.6 1 5 1.9 10.1 3.1 15.1 2.1 9.6 4.5 19.1 7.2 28.5-3.8.2-7.5.3-11.3.3zm13.6.2c-1.4-4.7-2.7-9.5-4-14.3-.5-2-1.1-3.9-1.6-5.9 1.7-2.3 3.5-4.5 5.3-6.7 2-2.4 4-4.7 6.1-7 1-1.1 2.1-2.2 3.2-3.3l.1-.1c1.2 3.1 4.6 11.4 5.9 14.1-.3 1.7-2.7 16.8-2.9 23.3l-12.1-.1zm13.1.1c.2-6.6 2.7-21.7 2.9-23.2v-.1l-.1-.1c-1.2-2.5-4.9-11.7-6-14.5.8-.7 1.7-1.4 2.5-1.8.1-.1.3-.1.4-.1.1 0 .3-.1.5-.1l1.1-.2c.8-.1 1.5-.2 2.3-.3 1.5-.2 3-.3 4.5-.5l4.5.5 2.3.2c.2 0 .4 0 .5.1.1 0 .2 0 .3.1.3.1.5.3.8.5 1 .7 1.9 1.6 2.8 2.5-1.5 3.5-5.4 13.3-5.5 13.4v.2c.6 4 2.7 20.3 3.1 23.5l-16.9-.1zm18 .3c-.2-1.5-2.5-19.7-3.1-23.9.4-1.1 3.8-9.4 5.2-12.9 1 1 1.9 2 2.8 3 2 2.3 4 4.6 5.9 7 .5.6 1 1.2 1.4 1.8.4.6.8 1.3 1.1 2l1.3 2.5-1.5 5.7c-1.3 4.9-2.7 9.9-4.2 14.8-2.9.1-5.9.1-8.9 0zm11.4-.7c2.7-9.4 5.1-18.9 7.2-28.5 1.1-5 2.1-10.1 3.1-15.1.4-2 .7-4.1 1.1-6.1 1-2.8 1.8-5.7 2.2-8.7l9.3 3.9c3.1 1.3 6.1 2.5 9.1 3.8l-.3.4c-.6.6-1.1 1.3-1.6 2-.7.9-1.3 1.8-1.9 2.8-1.3-.7-2.7-1.4-4-2l-4-1.9c-1.3-.6-2.7-1.3-4-1.8l7.5 4.7c2.3 1.4 4.6 2.8 6.9 4.1-1.7 3.4-3.4 6.8-5 10.2-1.8 3.6-3.4 7.3-5.1 11-1.7 3.7-3.3 7.4-4.9 11.1-1.5 3.4-2.9 6.8-4.2 10.3-3.9-.1-7.6-.2-11.4-.2zm52.6.5-18-.3-18-.1h-5.2c1.8-3.2 3.5-6.5 5.2-9.7 1.9-3.6 3.7-7.2 5.4-10.8 1.8-3.6 3.5-7.3 5.2-10.9 1.7-3.7 3.4-7.3 5-11l.3-.7-.7-.3c-1.2-.6-2.5-1.3-3.7-1.9.9-.7 1.7-1.5 2.5-2.3.3-.3.5-.6.8-.9h.1l14.5 4.5 7.2 2.3c2.4.8 4.8 1.5 7 2.4-1.6 2.8-2.9 5.9-3.5 9.1-.7 3.5-1.1 7-1.5 10.5-.4 3.5-.8 7-1 10.6-.2 3.3-.5 6.5-.6 9.8-.2-.3-.6-.3-1-.3zm1.2 0 .6-4.5.7-5.3c.5-3.5.8-7 1.2-10.5l1.2-10.5c.2-1.7.7-3.4 1.3-5.1.5-1.4 1-2.8 1.6-4.1l.4.2.4-.3c.6-.4 1.5-.7 2.1-.6.7.1 1.3.5 1.7 1.2.9 1.4 1.2 3.4 1.6 5.3.7 3.8 1.2 7.6 1.7 11.5.5 3.8.9 7.7 1.2 11.6.3 3.8.6 7.5.6 11.3-5.3 0-10.8-.1-16.3-.2z" fill="#184f58" stroke-width="none" opacity="1"></path><path id="SvgjsPath8869" d="M111 174.5c3.5.2 9.7 9.1 9.7 9.1s8.9-15.3 9.7-19c.8-3.6 2-14.2 2-14.2s-3 9.7-3.8 11.1-17.6 13-17.6 13zm-33.5 15c2-3.5 8.4-11.7 9.9-12.5 1.5-.8 7.6-1.6 7.6-1.6l-15-10.9s2.1 8.2 2.1 10.1-4.6 14.9-4.6 14.9z" fill="#ffffff" stroke-width="none" opacity="1"></path><path id="SvgjsPath8870" d="M184.7 180.9c2.3.8 3.3 6.6 4.1 9.7.8 3.1 2.3 25.1 2.3 25.1s-3.1-25.1-4.6-28.7c-1.5-3.6-1.8-6.1-1.8-6.1zM155 172c1.5-.2 21.9 5.8 25.7 8.2 0 0-10.6-2.3-15.3-3.6-4.8-1.3-10.4-4.6-10.4-4.6zm-16.3-2.6c1 .5 13 7.8 13 7.8s-11.7 24.1-12.9 27.1-5.4 11.7-5.4 11.7 6.1-16.8 7.8-22.6c1.6-5.8 6.1-15.7 6.1-15.7l-8.6-8.3zm-74.2-2.8c.5 5.3 7.8 40.6 10.9 47.8 0 0-6.6-15.3-9.7-29.5-3.2-14.2-1.2-18.3-1.2-18.3z" fill="#4d7e86" stroke-width="none" opacity="1"></path></g><g id="svga-group-head" transform="matrix(1,0,0,1,0,0)"><g id="svga-group-ears-left-move" transform="matrix(1,0,0,1,0,0)"><g id="svga-group-ears-left"><path id="SvgjsPath5289" d="M67.09 85.03s-3.12-7.36-5.69-9.71c-2.57-2.34-7.59-5.02-9.48-4.35-1.9.67 1.12 8.81 2.23 10.6 1.12 1.79 1.12 11.49 1.23 14.39.11 2.9 2.9 6.25 5.02 8.7 2.12 2.45 4.24-1.12 5.69-4.35 1.45-3.23 1-15.28 1-15.28z" fill="#f0c7b1" stroke-width="none" opacity="1"></path><path id="SvgjsPath5290" d="M65.92 91.31c-.33-2.85-5.11-11.21-6.86-12.8-1.76-1.59-5.69-4.44-5.77-3.52s2.26 5.69 2.34 8.54.17 10.96 1.09 12.72c.92 1.76 5.69 1.51 6.53-.17s2.67-4.77 2.67-4.77z" fill="#e1ac8f" stroke-width="none" opacity="1"></path><path id="SvgjsPath5291" d="M51.07 71.79c-.11.94.06 1.79.25 2.64.4 1.69.98 3.31 1.62 4.9.33.79.68 1.58 1.11 2.33.35.72.47 1.6.59 2.43.22 1.69.26 3.4.32 5.11.04 1.71.03 3.42.05 5.13.03.85-.04 1.71.14 2.62.17.89.52 1.72.93 2.5.82 1.56 1.87 2.94 2.96 4.28.27.33.55.67.83.99.13.16.29.33.47.5.16.18.38.32.6.45.46.25 1.07.32 1.58.14.49-.19.88-.49 1.21-.81.66-.65 1.13-1.41 1.57-2.16.43-.76.81-1.54 1.15-2.34.63-1.74.72-3.45.84-5.17.17-3.44.07-6.86-.15-10.29-.62-1.62-1.31-3.18-2.08-4.71-.79-1.52-1.59-3.06-2.7-4.42-.56-.69-1.24-1.27-1.92-1.8-.69-.53-1.41-1.01-2.15-1.47-1.49-.89-3.07-1.66-4.83-2.01-.44-.07-.91-.11-1.4.01-.22.02-.56.2-.71.44-.18.22-.23.47-.28.71zm.56.1c.04-.18.1-.36.19-.47.1-.11.16-.15.37-.18.35-.08.75-.02 1.14.05 1.6.33 3.13 1.13 4.58 1.96.73.42 1.44.88 2.11 1.38.68.51 1.32 1.03 1.85 1.67 1.07 1.27 1.97 2.74 2.81 4.22.83 1.48 1.63 3.01 2.37 4.53-.03 3.41-.11 6.84-.4 10.23-.16 1.68-.34 3.42-.92 4.9-.73 1.51-1.47 3.09-2.59 4.22-.28.27-.59.49-.9.61-.31.1-.61.06-.9-.09-.55-.33-1.09-1.11-1.65-1.73-1.09-1.3-2.14-2.64-2.94-4.1-.4-.73-.72-1.5-.9-2.28-.17-.76-.15-1.64-.19-2.49-.06-1.71-.14-3.42-.25-5.13-.11-1.71-.25-3.42-.48-5.12-.14-.85-.25-1.71-.66-2.52-.43-.72-.75-1.52-1.07-2.31-.62-1.59-1.13-3.22-1.44-4.89-.14-.84-.26-1.7-.13-2.46z" fill="#e1ac8f" stroke-width="none" opacity="1"></path><path id="SvgjsPath5292" d="M57.38 80.46c.58 1.22 1.11 2.47 1.51 3.75.4 1.29.75 2.59 1.06 3.9.29 1.31.56 2.63.72 3.97l-.08.02c-.42-1.28-.8-2.56-1.2-3.84-.39-1.28-.78-2.56-1.2-3.82-.41-1.27-.78-2.55-1.24-3.8-.38-1.05-.84-2.1-1.49-3 .37 1.58.79 3.15 1.13 4.74.19.9.36 1.8.49 2.71.07.46.13.92.17 1.38.05.46.04.98.04 1.39.05 1.78.28 3.6.53 5.39.14.9.28 1.79.47 2.67.09.44.2.88.32 1.3.01.02.01.04.02.06.04-.85.09-1.71.11-2.56.04-1.28.1-2.55.06-3.83l.08-.01c.17 1.27.2 2.56.25 3.84.03 1.28.04 2.56.05 3.84v.8l-.52-.59c-.4-.46-.51-.9-.68-1.34-.15-.45-.28-.89-.39-1.34-.23-.9-.42-1.8-.58-2.71-.31-1.82-.56-3.63-.58-5.51.09-1.79-.24-3.58-.47-5.39-.26-1.8-.5-3.62-.9-5.4l-.12-.54.35.42c.88 1.08 1.49 2.29 2.09 3.5z" fill="#c27b55" stroke-width="none" opacity="1"></path></g></g><g id="svga-group-ears-right-move" transform="matrix(1,0,0,1,0,0)"><g id="svga-group-ears-right"><path id="SvgjsPath5293" d="M132.91 85.03s3.12-7.36 5.69-9.71c2.57-2.34 7.59-5.02 9.48-4.35s-1.12 8.81-2.23 10.6c-1.12 1.79-1.12 11.49-1.23 14.39-.11 2.9-2.9 6.25-5.02 8.7-2.12 2.45-4.24-1.12-5.69-4.35-1.45-3.23-1-15.28-1-15.28z" fill="#f0c7b1" stroke-width="none" opacity="1"></path><path id="SvgjsPath5294" d="M134.08 91.31c.33-2.85 5.11-11.21 6.86-12.8 1.76-1.59 5.69-4.44 5.77-3.52.08.92-2.26 5.69-2.34 8.54s-.17 10.96-1.09 12.72c-.92 1.76-5.69 1.51-6.53-.17s-2.67-4.77-2.67-4.77z" fill="#e1ac8f" stroke-width="none" opacity="1"></path><path id="SvgjsPath5295" d="M148.66 71.07c-.15-.24-.49-.42-.71-.44-.49-.12-.96-.08-1.4-.01-1.76.35-3.34 1.12-4.83 2.01-.74.45-1.46.93-2.15 1.47-.68.53-1.36 1.1-1.92 1.8-1.11 1.36-1.91 2.9-2.7 4.42-.77 1.54-1.46 3.1-2.08 4.71-.23 3.43-.33 6.85-.15 10.29.12 1.72.22 3.44.84 5.17.34.79.72 1.58 1.15 2.34.44.76.91 1.51 1.57 2.16.33.32.72.62 1.21.81.51.18 1.11.11 1.58-.14.22-.14.44-.27.6-.45.18-.17.34-.34.47-.5.28-.32.55-.66.83-.99 1.09-1.34 2.14-2.72 2.96-4.28.4-.78.75-1.61.93-2.5.17-.92.11-1.77.14-2.62.02-1.71.01-3.42.05-5.13.05-1.71.1-3.42.32-5.11.12-.83.23-1.71.59-2.43.43-.76.78-1.54 1.11-2.33.64-1.59 1.21-3.21 1.62-4.9.18-.85.36-1.7.25-2.64-.06-.23-.11-.48-.28-.71zm-.42 3.27c-.31 1.66-.82 3.3-1.44 4.89-.32.79-.63 1.59-1.07 2.31-.41.81-.52 1.67-.66 2.52-.22 1.7-.37 3.41-.48 5.12-.11 1.71-.2 3.42-.25 5.13-.05.85-.02 1.73-.19 2.49-.18.79-.5 1.55-.9 2.28-.8 1.46-1.85 2.8-2.94 4.1-.56.62-1.1 1.4-1.65 1.73-.29.15-.59.19-.9.09-.31-.12-.62-.34-.9-.61-1.12-1.13-1.86-2.71-2.59-4.22-.58-1.47-.76-3.22-.92-4.9-.29-3.39-.37-6.82-.4-10.23.74-1.52 1.54-3.05 2.37-4.53.84-1.48 1.73-2.95 2.81-4.22.53-.63 1.17-1.16 1.85-1.67.67-.5 1.39-.96 2.11-1.38 1.45-.83 2.98-1.63 4.58-1.96.39-.07.8-.12 1.14-.05.21.03.27.07.37.18.09.11.15.29.19.47.13.77.01 1.63-.13 2.46z" fill="#e1ac8f" stroke-width="none" opacity="1"></path><path id="SvgjsPath5296" d="M142.62 80.46c-.58 1.22-1.11 2.47-1.51 3.75-.4 1.29-.75 2.59-1.06 3.9-.29 1.31-.56 2.63-.72 3.97l.08.02c.42-1.28.8-2.56 1.2-3.84.39-1.28.78-2.56 1.2-3.82.41-1.27.78-2.55 1.24-3.8.38-1.05.84-2.1 1.49-3-.37 1.58-.79 3.15-1.13 4.74-.19.9-.36 1.8-.49 2.71-.07.46-.13.92-.17 1.38-.05.46-.04.98-.04 1.39-.05 1.78-.28 3.6-.53 5.39-.14.9-.28 1.79-.47 2.67-.09.44-.2.88-.32 1.3-.01.02-.01.04-.02.06-.04-.85-.09-1.71-.11-2.56-.04-1.28-.1-2.55-.06-3.83l-.08-.01c-.17 1.27-.2 2.56-.25 3.84-.03 1.28-.04 2.56-.05 3.84v.8l.52-.59c.4-.46.51-.9.68-1.34.15-.45.28-.89.39-1.34.23-.9.42-1.8.58-2.71.31-1.82.56-3.63.58-5.51-.09-1.79.24-3.58.47-5.39.26-1.8.5-3.62.9-5.4l.12-.54-.35.42c-.88 1.08-1.49 2.29-2.09 3.5z" fill="#c27b55" stroke-width="none" opacity="1"></path></g></g><g id="svga-group-faceshape-wrap"><g id="svga-group-faceshape-single"><path id="SvgjsPath4304" d="M139.42 105.09c.29-8.36-.32-24.19.98-36.59 0 0 .9-9.5 0-13.6-2.2-10-6.3-16-15.2-20.8-9.3-5-25.2-4.8-25.2-4.8s-15.9-.2-25.2 4.8c-8.8 4.8-13 10.8-15.2 20.8-.9 4 0 13.6 0 13.6 1.3 12.4.52 25.14.91 34.65.49 15.53 4.95 26.5 10.09 33.1 12.7 15.7 29.4 15.35 29.4 15.35s15.46 1.51 28.16-14.19c8.05-9.99 10.85-20.76 11.26-32.32z" fill="#f0c7b1" stroke-width="none" opacity="1" stroke="none"></path><path id="SvgjsPath4305" d="M87.9 137.9s8.6-8.5 21.2-.5c0 0-12.3-3-21.2.5z" fill="#d19271" stroke-width="none" opacity="1" stroke="none"></path><path id="SvgjsPath4306" d="M128.16 137.41c8.06-9.99 10.86-20.76 11.26-32.32.29-8.36-.32-24.19.98-36.59 0 0 .9-9.5 0-13.6-2.2-10-6.3-16-15.2-20.8-9.3-5-25.2-4.8-25.2-4.8s-15.9-.2-25.2 4.8c-8.8 4.8-13 10.8-15.2 20.8-.9 4 0 13.6 0 13.6 1.3 12.4.52 25.14.91 34.65.49 15.53 4.95 26.5 10.09 33.1 12.7 15.7 29.4 15.35 29.4 15.35s15.46 1.51 28.16-14.19zm-5.62 4.69c-2.14 1.75-4.41 3.3-6.84 4.57-2.44 1.24-5 2.22-7.64 2.86-.66.18-1.32.32-1.99.43-.66.14-1.34.21-2.01.3-1.32.14-2.74.21-3.95.11h-.15c-2.6-.07-5.41-.57-8.03-1.33-2.64-.77-5.22-1.78-7.63-3.11-4.86-2.58-9.15-6.21-12.64-10.46-3.35-4.3-5.73-9.43-7.31-14.76-1.57-5.35-2.42-10.92-2.68-16.53-.33-5.63-.25-11.32-.34-17.02-.08-5.7-.31-11.42-.91-17.11-.33-2.83-.55-5.64-.65-8.47-.05-1.41-.06-2.82.01-4.22.04-.69.09-1.39.22-2.06.12-.68.3-1.37.45-2.06.69-2.73 1.64-5.39 2.96-7.86 1.36-2.45 3.09-4.69 5.19-6.55 2.09-1.86 4.49-3.41 6.99-4.67 2.51-1.23 5.24-2.02 7.99-2.63 5.52-1.15 11.21-1.55 16.83-1.46 5.62.17 11.28.81 16.68 2.19 2.7.69 5.33 1.6 7.71 2.91 2.43 1.34 4.72 2.89 6.7 4.76 4.02 3.71 6.38 8.86 7.71 14.27.73 2.59.72 5.42.74 8.24-.02 2.83-.18 5.62-.4 8.49-.68 11.42 0 22.8-.28 34.17-.21 5.61-1.03 11.23-2.84 16.53-1.8 5.31-4.6 10.23-8.11 14.54-.84 1.11-1.85 2.07-2.77 3.11-.45.53-1 .96-1.49 1.44-.49.45-.98.94-1.52 1.38z" fill="#c27b55" stroke-width="none" opacity="1" stroke="none"></path></g></g><g id="svga-group-mouth-single-move" transform="matrix(1,0,0,1,0,0)"><g id="svga-group-mouth-single"><path id="SvgjsPath5130" d="M88.53 129.83s4.06 4.15 10.11 4.69 12.45-4.15 12.45-4.15-12.81 5.96-22.56-.54z" fill="#d19271" stroke-width="none" opacity="1" stroke="none"></path><path id="SvgjsPath5131" d="M83.99 123.04s1.47.84 3.56 1.38c2.32.6 5.38.95 7.57 1.65 2.99.95 3.52 2.68 4.69 2.49 1.17-.18 2.37-2.32 4.63-2.77 2.26-.45 8.66 0 11.37-1.49 0 0-10.89-1.46-16.48-1.65-7.61-.26-15.34.39-15.34.39z" fill="#da7c87" stroke-width="none" opacity="1" stroke="none"></path></g></g><g id="svga-group-eyes-left-move" transform="matrix(1,0,0,1,0,0)"><g id="svga-group-eyes-left"><g id="svga-group-eyesback-left"><path id="SvgjsPath6081" d="M80.2 74.2c7.5 0 13.5 5.8 13.5 13s-6 13-13.5 13-13.5-5.8-13.5-13 6-13 13.5-13z" fill="#ffffff" stroke-width="none" opacity="1"></path></g><g id="svga-group-eyesiriswrapper-left" transform="matrix(1,0,0,1,0,0)"><g id="svga-group-eyesiriscontrol-left" transform="matrix(1,0,0,1,0,0)"><g id="svga-group-eyesiris-left"><path id="SvgjsPath4342" d="M80.2 81.6c3.1 0 5.6 2.5 5.6 5.6s-2.5 5.6-5.6 5.6-5.6-2.5-5.6-5.6 2.5-5.6 5.6-5.6z" fill="#4e60a3" stroke-width="none" opacity="1" stroke="none"></path><path id="SvgjsPath4343" d="M80.2 84.2c1.7 0 3 1.3 3 3s-1.3 3-3 3-3-1.3-3-3 1.3-3 3-3z" fill="#000000" stroke-width="none" opacity="1"></path><path id="SvgjsPath4344" d="m79.5 84.8-.6-.6c-.2-.2-.5-.3-.8-.3s-.6.1-.8.3c-.2.2-.3.5-.3.8s.1.6.3.8l.6.6c.2.2.5.3.7.3.3 0 .6-.1.7-.3.6-.6.6-1.2.2-1.6zm2.7 5.1c1 0 1-1.5 0-1.5-.9 0-.9 1.5 0 1.5z" fill="#ffffff" stroke-width="none" opacity="1"></path></g></g></g><g id="svga-group-eyesfront-left"><path id="SvgjsPath6089" d="M80.2 73.7c-7.8 0-14.1 6.1-14.1 13.6s6.3 13.6 14.1 13.6 14.1-6.1 14.1-13.6S88 73.7 80.2 73.7zm0 21.9c-5.5 0-10.7-2.8-10.8-3.7-.2-1 .9-4.2 3.2-6.8 2.4-2.6 8-3.5 12.8-1.5s5.9 8 5.9 8c.1 1.8-5.6 4-11.1 4z" fill="#f0c7b1" stroke-width="none" opacity="1"></path><path id="SvgjsPath6090" d="M89.4 86.9c.7 0 3.1 0 2.4-.2-1.2-.4-5.6-3.8-6.8-4.3s-5.5-1.3-6.2-1.3-7.1 2.8-7.7 3.2c-.6.4-2.2 6-2.6 6.3-.2.2.4.5.8.7 0 .1 0 .2-.1.3v.2c0 .1.1.2.1.3.1.2.2.3.3.4.2.2.5.4.7.6.5.3 1 .6 1.6.9 2.1 1 4.4 1.6 6.8 1.8 2.4.2 4.7-.1 7-.7 1.1-.3 2.2-.7 3.3-1.2.5-.3 1-.5 1.5-.9l.6-.6c.2-.2.3-.5.3-.8-.2-1.1-.7-2.2-1.2-3.3-.3-.4-.5-.9-.8-1.4zm1.6 5.5-.6.6c-.5.3-1 .6-1.5.8-1.1.4-2.2.8-3.3 1-2.2.4-4.6.7-6.8.5-2.3-.2-4.5-.8-6.6-1.7-.5-.2-1-.5-1.5-.8-.2-.2-.5-.3-.7-.5-.1-.1-.2-.2-.2-.3 0-.1 0-.1-.1-.1v-.2c0-.2 0-.4.1-.6.4-1 1.6-3.8 2.5-5 1.2-1.5 3.6-3.3 6.9-3.3 1.7 0 3.2.2 4.5.5.5.2 1.1.3 1.6.6 1.1.4 2 1.1 2.8 1.8 1.6 1.6 2.8 3.7 3.3 5.9-.1.3-.2.6-.4.8z" fill="#000000" stroke-width="none" opacity="1"></path></g></g></g><g id="svga-group-eyes-right-move" transform="matrix(1,0,0,1,0,0)"><g id="svga-group-eyes-right"><g id="svga-group-eyesback-right"><path id="SvgjsPath6082" d="M119.8 74.2c7.5 0 13.5 5.8 13.5 13s-6 13-13.5 13-13.5-5.8-13.5-13 6-13 13.5-13z" fill="#ffffff" stroke-width="none" opacity="1"></path></g><g id="svga-group-eyesiriswrapper-right" transform="matrix(1,0,0,1,0,0)"><g id="svga-group-eyesiriscontrol-right" transform="matrix(1,0,0,1,0,0)"><g id="svga-group-eyesiris-right"><path id="SvgjsPath4345" d="M119.8 82.3c2.7 0 4.9 2.2 4.9 4.9s-2.2 4.9-4.9 4.9-4.9-2.2-4.9-4.9 2.2-4.9 4.9-4.9z" fill="#4e60a3" stroke-width="none" opacity="1" stroke="none"></path><path id="SvgjsPath4346" d="M119.8 84.6c1.4 0 2.6 1.2 2.6 2.6s-1.2 2.6-2.6 2.6-2.6-1.2-2.6-2.6 1.2-2.6 2.6-2.6z" fill="#000000" stroke-width="none" opacity="1"></path><path id="SvgjsPath4347" d="M119.2 85.1c-.2-.2-.3-.4-.5-.5-.2-.2-.4-.3-.7-.3-.2 0-.5.1-.7.3-.2.2-.3.4-.3.7 0 .2.1.5.3.7.2.2.4.3.5.5.2.2.4.3.7.3.2 0 .5-.1.7-.3.3-.5.3-1.1 0-1.4zm2.4 4.5c.8 0 .9-1.3 0-1.3-.8-.1-.8 1.3 0 1.3z" fill="#ffffff" stroke-width="none" opacity="1"></path></g></g></g><g id="svga-group-eyesfront-right"><path id="SvgjsPath6091" d="M119.8 73.7c-7.8 0-14.1 6.1-14.1 13.6s6.3 13.6 14.1 13.6 14.1-6.1 14.1-13.6-6.3-13.6-14.1-13.6zm.3 20.6c-5.5 0-11.3-1.9-11.1-3.4 0 0 1.2-5.1 5.9-6.9s9.6-.7 12 1.5c2.4 2.3 4.2 4.8 4 5.6-.1.8-5.3 3.2-10.8 3.2z" fill="#f0c7b1" stroke-width="none" opacity="1"></path><path id="SvgjsPath6094" d="M131.9 90c-.3-.3-3.5-4-4.1-4.3s-4-3.2-4.8-3.2-6.4 0-7.6.4-4.2 2.8-4.7 3.4c-.3.4.2.2.7 0-.4.5-.8 1-1.1 1.5-.6 1-1 2-1.3 3 0 .3.1.6.3.8.2.2.4.4.7.5.5.3 1 .5 1.5.8 1 .4 2.1.8 3.2 1 2.2.5 4.4.8 6.6.7 2.2-.1 4.4-.6 6.5-1.3 1-.4 2.1-.8 3-1.5l.3-.3c.1-.1.1-.2.1-.3v-.3c0-.1 0-.1-.1-.2.4-.2 1-.4.8-.7zm-1.2 1.1c-.1.1-.1.2-.2.2-.8.6-1.9 1-2.9 1.4-2.1.7-4.2 1.1-6.4 1.3-2.2.1-4.3-.1-6.5-.4-1.1-.2-2.1-.4-3.2-.8-.5-.2-1-.4-1.5-.7-.2-.1-.5-.3-.7-.5-.2-.2-.3-.4-.3-.7.6-2.1 1.9-4 3.6-5.3.9-.7 1.8-1.1 2.8-1.5.9-.3 1.7-.5 2.6-.6.2 0 .5-.1.7-.1h.7c1.8-.1 3.7.2 5.3.9 1.3.8 2.3 1.8 2.9 2.5.9 1 2.3 2.9 2.8 3.7.1.2.1.3.1.5.2-.1.2 0 .2.1z" fill="#000000" stroke-width="none" opacity="1"></path></g></g></g><g id="svga-group-facehighlight-single"></g><g id="svga-group-eyebrows-left-move" transform="matrix(1,0,0,1,0,0)"><g id="svga-group-eyebrows-left-rotate" transform="matrix(1,1.7453292519943295e-9,-1.7453292519943295e-9,1,1.2391838311032188e-7,-1.3753196981269866e-7)"><g id="svga-group-eyebrows-left"><path id="SvgjsPath6539" d="M67.87 76.23s1.96-4.66 6.27-6.5c4.32-1.84 16.59 1.19 15.86 4.07-.73 2.87-4.1 1.64-6.44.58s-7.93-6.39-15.69 1.85z" fill="#2a232b" stroke-width="none" opacity="1"></path><path id="SvgjsPath6540" d="M90.03 72.96c-.29-.52-.75-.86-1.2-1.16-.47-.29-.96-.54-1.45-.76-1-.43-2.04-.76-3.09-1.05-2.1-.56-4.25-.98-6.44-1.04-1.09-.01-2.21.05-3.28.38-1.06.38-2.02.95-2.87 1.64-.86.69-1.6 1.52-2.24 2.39-.33.44-.62.9-.89 1.37-.14.24-.26.48-.38.72-.06.12-.12.24-.17.37l-.08.19-.04.09-.02.05c-.01.03-.01.06-.01.08.19-.18.4-.35.61-.55.21-.21.41-.36.62-.55.2-.18.41-.35.62-.51.21-.17.42-.34.64-.49.87-.63 1.8-1.17 2.79-1.56a8.6 8.6 0 0 1 3.08-.63c.53 0 1.05.05 1.57.13.52.09 1.03.24 1.52.42 1 .35 1.93.86 2.87 1.4.47.27.94.56 1.46.78.5.22 1.01.43 1.53.6.52.18 1.05.34 1.61.42.55.09 1.13.12 1.7-.03.28-.07.56-.19.8-.37s.43-.41.58-.66c.14-.25.24-.53.31-.8.03-.15.04-.31.02-.46-.05-.13-.1-.28-.17-.41zm-.18.81c-.07.25-.17.49-.3.7-.26.43-.69.72-1.17.82-.49.11-1.01.07-1.53-.02-.51-.1-1.02-.25-1.52-.43s-.99-.39-1.48-.61c-.48-.21-.93-.49-1.4-.77-.93-.56-1.91-1.09-2.95-1.46-1.05-.37-2.17-.57-3.28-.53-1.11.05-2.22.31-3.22.75-1.01.44-1.94 1.04-2.79 1.72-.22.17-.42.34-.62.53-.21.18-.41.36-.6.56-.19.19-.4.38-.56.57-.17.19-.33.4-.53.61 1.02-1.85 2.36-3.63 4.05-4.92.84-.64 1.78-1.18 2.76-1.52 1-.29 2.08-.37 3.15-.39 1.07-.01 2.15.05 3.22.18 1.07.13 2.13.32 3.18.59 1.05.27 2.07.61 3.05 1.06.49.22.97.47 1.41.78.43.3.85.66 1.08 1.1a1 1 0 0 1 .05.68z" fill="#1b141c" stroke-width="none" opacity="1"></path></g></g></g><g id="svga-group-eyebrows-right-move" transform="matrix(1,0,0,1,0,0)"><g id="svga-group-eyebrows-right-rotate" transform="matrix(1,1.7453292519943295e-9,-1.7453292519943295e-9,1,1.2705996255135688e-7,-2.123193070246998e-7)"><g id="svga-group-eyebrows-right"><path id="SvgjsPath6541" d="M132.8 72.8s-2.65-4.3-7.2-5.46c-4.55-1.16-16.21 3.72-15.05 6.45s4.3.99 6.45-.41c2.16-1.41 6.87-7.53 15.8-.58z" fill="#2a232b" stroke-width="none" opacity="1"></path><path id="SvgjsPath6542" d="m132.8 72.74-.03-.05-.05-.09-.11-.17c-.07-.12-.15-.23-.23-.34-.16-.22-.32-.44-.49-.65-.34-.43-.7-.84-1.09-1.22-.78-.77-1.63-1.47-2.58-2.02-.95-.56-1.98-.97-3.09-1.18-1.11-.16-2.22-.06-3.3.13-2.16.39-4.22 1.13-6.2 2.01-.99.45-1.97.93-2.89 1.51-.46.29-.91.61-1.32.97-.41.37-.81.77-1.01 1.33-.05.14-.08.29-.08.44 0 .15.03.31.09.45.11.26.25.51.43.74.18.23.41.43.67.57.26.14.56.22.85.24.59.06 1.15-.06 1.68-.23s1.04-.41 1.52-.66c.49-.26.96-.54 1.42-.83.48-.29.9-.66 1.32-.99.84-.68 1.68-1.33 2.62-1.83.46-.25.94-.48 1.44-.64.5-.17 1.01-.29 1.53-.37 1.04-.14 2.11-.1 3.14.15 1.03.24 2.04.62 3 1.11.24.12.47.25.71.38s.47.26.7.41c.23.15.45.27.69.45.24.16.48.3.69.45-.01-.01-.01-.05-.03-.07zm-.63-.48c-.19-.16-.43-.32-.64-.48-.22-.16-.44-.31-.67-.46-.23-.15-.46-.3-.7-.43-.95-.54-1.95-1-3.02-1.28a8.942 8.942 0 0 0-3.3-.25c-1.11.13-2.18.5-3.16 1.03-.98.52-1.86 1.2-2.7 1.89-.42.35-.82.7-1.26.98-.45.3-.9.58-1.37.83-.47.26-.95.49-1.44.66-.49.17-1.01.29-1.5.26-.5-.03-.96-.25-1.29-.63-.16-.19-.3-.41-.41-.65-.1-.21-.1-.45-.03-.69.15-.48.51-.89.89-1.26.39-.37.82-.69 1.27-.98.9-.59 1.86-1.09 2.86-1.51.99-.42 2.02-.78 3.05-1.07 1.04-.29 2.09-.52 3.15-.68 1.06-.15 2.13-.24 3.17-.1 1.02.18 2.04.57 2.96 1.08 1.87 1.02 3.47 2.57 4.76 4.24-.23-.16-.42-.34-.62-.5z" fill="#1b141c" stroke-width="none" opacity="1"></path></g></g></g><g id="svga-group-beardwrap"><g id="svga-group-beard-single-move" transform="matrix(1,0,0,1,0,0)"><g id="svga-group-beard-single"></g></g></g><g id="svga-group-mustache-single-move" transform="matrix(1,0,0,1,0,0)"><g id="svga-group-mustache-single"></g></g><g id="svga-group-nose-single-move" transform="matrix(1,0,0,1,0,0)"><g id="svga-group-nose-single"><path id="SvgjsPath4833" d="M94.01 101.77c-.25.14-5.57 3.17-5.76 7.01-.19 3.84 2.21 5.19 4.23 3.55 2.02-1.63 2.69-1.25 3.94-.19s4.8 1.63 6.24.48c1.44-1.15 2.11-1.63 3.74 0 1.63 1.63 6.05-.77 4.61-5.95-1.44-5.19-11.62-7.88-17-4.9z" fill="url(#SvgjsLinearGradient4834)" opacity="1"></path><path id="SvgjsPath4837" d="M94.01 101.77c-1.1.65-2.14 1.42-3.07 2.3-.93.88-1.75 1.9-2.23 3.08-.14.29-.19.6-.28.91-.03.16-.04.31-.06.47-.02.16-.04.31-.03.47-.02.63.07 1.27.25 1.86.18.59.49 1.15.96 1.53.46.39 1.08.49 1.64.36.14-.03.28-.1.42-.14.13-.07.26-.14.39-.22l.36-.27c.13-.1.25-.21.38-.31.53-.38 1.09-.81 1.87-.87.39-.02.77.1 1.08.28.31.17.57.38.83.59.45.38 1.01.59 1.6.76 1.16.32 2.47.42 3.56.08.28-.08.5-.21.72-.36.25-.2.51-.41.79-.6s.6-.39 1-.49c.41-.1.87-.03 1.21.14.35.17.64.38.89.61.13.11.25.23.37.35.11.1.18.16.29.23.42.24.99.24 1.52.05 1.07-.37 1.91-1.36 2.24-2.49.36-1.13.27-2.42-.08-3.59-.37-1.15-1.18-2.16-2.16-2.94-.98-.79-2.11-1.4-3.29-1.87-1.19-.46-2.43-.79-3.69-.97-1.27-.17-2.56-.22-3.83-.06-1.26.15-2.52.5-3.65 1.11zm0 0c1.13-.62 2.38-.98 3.66-1.14 1.27-.17 2.57-.17 3.85-.03 2.55.29 5.11 1.06 7.23 2.61 1.05.77 1.98 1.8 2.45 3.09.23.64.36 1.29.42 1.96.05.67.01 1.36-.19 2.03-.37 1.32-1.3 2.56-2.68 3.06-.67.24-1.5.3-2.21-.1-.09-.05-.17-.11-.25-.17-.07-.06-.16-.14-.22-.19-.11-.1-.22-.22-.33-.31-.22-.2-.46-.36-.69-.47a.97.97 0 0 0-.66-.09c-.22.05-.47.19-.71.35-.25.17-.49.36-.74.56-.31.22-.65.41-.99.5-.69.21-1.38.24-2.05.2a8.96 8.96 0 0 1-1.98-.36c-.63-.2-1.29-.49-1.81-.96-.47-.41-.95-.8-1.46-.79-.52.01-1.08.34-1.59.69-.13.09-.25.19-.38.28l-.42.29c-.15.08-.31.16-.46.23-.17.05-.33.12-.5.15-.68.14-1.45-.03-1.96-.51-.52-.46-.83-1.09-.99-1.72a6.39 6.39 0 0 1-.18-1.94c0-.16.02-.32.05-.49.03-.16.04-.32.08-.48.11-.31.17-.63.32-.92.24-.6.62-1.13 1-1.65.41-.5.84-.97 1.32-1.4.91-.88 1.96-1.64 3.07-2.28z" fill="#c27b55" stroke-width="none" opacity="1" stroke="none"></path></g></g><g id="svga-group-hair-front"><path id="SvgjsPath8224" d="M62.3 84.7s1.5-2.7 1.7-7.3 0-10.9.2-14.2c.2-3.3 1-8.2 1.5-10 .4-1.8.6-3.5 1.8-5.3 1.2-1.8 2.4-3.6 5.2-4.3 2.8-.7 7.6-3 8.7-4.3 0 0 3-.6 3.7-1 0 0 5.3 2.6 7.2 2.8 1.9.2 8.2.5 12.3-.7s10.1-2.6 12.4-2.2 12.2-1.1 16.6 12.7c0 0 1.1 4.3 1.2 10.4.1 6.1.3 10.1.8 11.9.4 1.8 1.2 5.6 1.2 7.3s.6 2.5.6 2.5 1.7-3.8 2.2-5.8 1.9-11.6 2.1-13.1c.2-1.5.6-6.4.9-8.5.3-2 0-9.5 0-9.5s.1-4.7-.6-6.1c-.7-1.3-1.4-3.5-2.9-4.8 0 0 .1-1.6-.1-2.7s-2.1-5.3-8.2-10.6-13.3-9.4-21.6-9.4c0 0 2.9-.4 4.8-.6 0 0-5.5-.7-8.1-.3l4.3-.6s-7.2-1.4-12.3.1c0 0 .7-1.2 4.2-2.5 0 0-7.8-2.1-15.4 3.1 0 0-5.9-.3-11.7 6.8 0 0-3.7 1.1-4.7 1.8s-6.2 3.1-6.9 11.4c0 0-5 .6-5.5 11l.5 8.7s-1.8 3.6-1.8 7.3 1 6 1.1 7.8c.1 1.8.7 5.2.7 5.2s1.8 4.2 2.1 5.9c.2 1.9 1.8 7.1 1.8 7.1z" fill="#2a232b" stroke-width="none" opacity="1"></path><path id="SvgjsPath8225" d="M143 46.5c.1-1 .1-2 0-3s-.3-2-.6-3-.7-1.9-1.1-2.8c-.4-.8-1-1.6-1.6-2.4.2-1.8-.4-3.5-1.2-5-.8-1.5-1.9-2.9-3.1-4.2-2.3-2.6-5-4.8-7.7-6.9-2.8-2-5.8-3.8-9.1-4.9-1.6-.6-3.3-1-5-1.2-1.7-.2-3.4-.3-5.1-.1 3.4-.3 6.8.5 10 1.7s6.1 3 8.8 5.1c1.4 1 2.6 2.1 3.9 3.3 1.3 1.1 2.5 2.3 3.6 3.6 1.1 1.3 2.1 2.6 2.9 4.1.8 1.4 1.3 3.1 1.1 4.6v.2l.2.2c.6.7 1.1 1.5 1.6 2.3.4.8.8 1.7 1.1 2.6s.5 1.8.5 2.8c.1 1 .1 1.9 0 2.9.2 3.1.2 6.2.1 9.3-.1 3.1-.7 6.1-1.1 9.2-.4 3.1-.8 6.2-1.3 9.2-.2 1.5-.5 3.1-.9 4.5-.5 1.4-1.1 2.9-1.5 4.4.5-1.5 1.1-2.9 1.7-4.3.5-1.5.8-3 1.1-4.6.6-3.1 1.1-6.1 1.5-9.2l.7-4.6c.3-1.5.4-3.1.5-4.7.2-2.9.2-6 0-9.1zm-7.5 1.3c.1-.8.4-1.6.6-2.4.2-.8.5-1.6.8-2.4l.8-2.4.4-1.2.2-.6.1-.3.1-.2v-.1.1-.1c-.1 0 0 0-.1.1l-.1.1-.2.3-.3.5-.6 1.1c-.4.8-.8 1.5-1.1 2.3-.7 1.6-1.3 3.2-1.6 4.9-.2 1.2-.2 2.4-.2 3.6-.1-.5-.3-1-.4-1.5-.5-1.8-1.2-3.6-2-5.3s-1.7-3.4-3-4.9c-2.4-3-5.9-4.9-9.4-6.3-3.5-1.2-6.3-3.8-8.2-6.9-.9-1.5-1.7-3.3-1.8-5.1-.1-.9.1-1.8.4-2.6.4-.8.9-1.5 1.7-2 1.4-1.1 3.3-1.6 5.1-1.5 1.8.1 3.7.7 5.3 1.6-1.6-1-3.4-1.6-5.3-1.8-1.9-.2-3.9.2-5.4 1.4-.8.5-1.5 1.3-1.9 2.2-.4.9-.6 1.9-.5 2.9.1 2 .8 3.8 1.8 5.4 1.9 3.3 5 6 8.5 7.3 3.4 1.4 6.7 3.3 8.9 6.1 1.8 2.2 3 4.8 4 7.5-1.3-3.2-3.6-6.2-6.7-8-1.8-1.1-3.9-1.7-6-1.8h-.4c-3.2-1-6.6-1.6-10-1.7h-2.5l-.8-.1c-.5 0-1.1-.2-1.6-.3-.5-.2-1-.3-1.5-.6-2-.9-3.7-2.3-4.8-4.1-1.2-1.8-2-3.9-2.3-6-.3-2.2-.2-4.4.5-6.4s2.3-3.7 4.1-4.9c1.9-1.1 4.1-1.8 6.3-2.1-2.2.1-4.5.6-6.5 1.7s-3.7 2.8-4.6 5c-.2.5-.4 1.1-.5 1.7-.1.6-.2 1.1-.2 1.7 0 .6-.1 1.1-.1 1.7 0 .6.1 1.1.1 1.7.3 2.3 1.1 4.5 2.3 6.5 1.3 1.9 3.2 3.5 5.3 4.4 2.1 1 4.6 1.1 6.8.9 2.2-.1 4.4.1 6.6.5.6.1 1.3.2 1.9.3-1.5 0-3 0-4.4.2-4.2.5-8.2 2-12.2 2.6-2 .3-4.1.4-6.1.2-2.1-.1-4.1-.6-5.9-1.4-1.8-.8-3.5-2-4.8-3.6-1.3-1.5-2.2-3.4-2.8-5.3s-.8-4-.7-6c.1-2 .3-4.1 1.1-6 1.6-3.7 4.9-6.6 8.6-8.2 3.4-1.5 7.3-2 10.9-1.4-.5.2-1 .3-1.5.6-.4.2-.8.4-1.2.7-.4.3-.7.6-.9 1.1l-.1.4.4-.1c1-.4 2.1-.6 3.1-.7 1.1-.1 2.1-.2 3.2-.2s2.2.1 3.2.1c1.1.1 2.2.2 3.2.4-1.1-.2-2.1-.4-3.2-.5s-2.2-.2-3.2-.2c-1.1 0-2.2 0-3.3.1-.9.1-1.8.2-2.7.5.2-.2.3-.4.5-.5.3-.2.7-.4 1.1-.6.8-.3 1.6-.6 2.5-.8l1.1-.2-1.1-.3c-4-1-8.5-.6-12.4 1-1.3.5-2.6 1.2-3.7 2.1-1.5.2-2.9.6-4.3 1.2-1.7.7-3.3 1.7-4.7 2.8-.4.3-.7.6-1.1.9-.3.3-.6.7-.9 1-.3.4-.5.8-.8 1.1-3.1.6-6.1 2.2-8.3 4.6-1.3 1.5-2.1 3.3-2.7 5.2-.3 1.2-.5 2.4-.5 3.6-1.5.5-2.8 1.6-3.6 3-.9 1.5-1.3 3.3-1.5 5-.4 3.3-.4 6.7 0 10.1v.2c-.9 2.7-1.6 5.5-1.8 8.4V61c.1.7.2 1.5.4 2.2.3 1.4.5 2.8.7 4.2.2 1.4.4 2.8.8 4.2.2.7.4 1.4.7 2.1.3.6.5 1.3.8 2 .9 2.7 1.7 5.4 2.4 8.2-.5-2.8-1-5.6-1.9-8.4-.2-.7-.4-1.4-.7-2.1-.3-.7-.5-1.3-.6-2-.3-1.4-.4-2.8-.6-4.2-.2-1.4-.4-2.8-.7-4.2-.2-.7-.3-1.4-.3-2v-2c.1-2.2.6-4.4 1.2-6.5.7 2.9 2.2 8.2 5.7 12.4 0 1.1.1 2.2 0 3.4 0 1.9-.1 3.8-.1 5.6 0 1.9-.1 3.8-.3 5.6-.1.9-.1 1.9-.3 2.8-.2.9-.2 1.9-.7 2.7.5-.8.7-1.8.9-2.7s.4-1.9.5-2.8c.2-1.9.4-3.8.6-5.6.2-1.9.2-3.8.3-5.7.1-1.9 0-3.8 0-5.6.1-3.7.6-7.5 1.5-11.1.4-1.8 1-3.6 2.2-5 1.2-1.4 2.8-2.4 4.6-3-1.8.4-3.6 1.4-5 2.7-.7.7-1.2 1.5-1.6 2.4-.4.9-.7 1.8-1 2.7-.6 1.8-.9 3.7-1.2 5.6-.3 1.9-.5 3.8-.6 5.7v.6c-4.1-5.7-5.1-13-5.1-13.1h-.1c-.2-1.6-.3-3.2-.4-4.8-.1-1.7 0-3.4.1-5.2.1-1.7.4-3.4 1.2-4.9.7-1.3 1.8-2.5 3.3-3.1 0 .7 0 1.5.1 2.2.3 1.9 1 3.9 2.4 5.3 1.4 1.5 3.4 2.2 5.3 2.4 3.9.6 7.9-.6 10.8-3-1.6 1-3.3 1.8-5.2 2.2-1.8.4-3.7.4-5.5.1-1.8-.4-3.6-1-4.8-2.3-1.2-1.3-1.9-3.1-2.1-4.9-.5-3.6.5-7.5 2.7-10.4 1.2-1.4 2.7-2.6 4.3-3.5 1-.6 2.2-1 3.3-1.4-.2.4-.3.7-.5 1.1-.7 1.7-1.1 3.6-1.2 5.4-.1 1.9 0 3.7.4 5.5.4 1.8 1 3.6 2.2 5.1.6.7 1.4 1.4 2.2 1.8.8.4 1.7.7 2.6.9 1.8.3 3.6.2 5.2-.6 1 .8 2.2 1.5 3.4 2.1 2 .8 4.1 1.3 6.2 1.4 2.1.2 4.2.1 6.3-.2 4.2-.7 8.1-2.2 12.2-2.8 2.6-.3 5.3-.5 7.8-.1l1.2.3c-.2-.1-.4-.1-.6-.2 1.3.3 2.5.7 3.6 1.3 3.5 1.9 6.1 5.4 7.5 9.2.1.2.2.5.2.7.5 1.8.9 3.6 1.1 5.4 0 .2 0 .3.1.5 0 .6-.1 1.3-.2 1.9.1-.3.2-.5.3-.8.1 1.3 0 2.6 0 3.9 0 3.7.4 7.5.9 11.2.3 1.8.7 3.7 1.1 5.5.4 1.8.2 3.7.1 5.5.1-.9.3-1.8.4-2.8.1-.9 0-1.9-.1-2.8-.1-.9-.3-1.8-.5-2.8s-.3-1.8-.4-2.8c-.4-3.7-.7-7.4-.6-11.1.1-1.8.1-3.8-.1-5.6 0-.3-.1-.7-.1-1 .1-.5.1-1 .2-1.5.3-1.3.3-3 .6-4.6zM80 38.4c-1.7-.5-3.4-1.3-4.3-2.6-1-1.4-1.5-3.1-1.9-4.9-.3-1.7-.4-3.5-.3-5.3.2-2.4.8-4.8 2-6.9.2 0 .5-.1.8-.1-.2 0-.5 0-.7.1.6-.9 1.2-1.7 2.1-2.4 1.3-1.2 2.8-2.2 4.4-3 1.2-.6 2.6-1.1 3.9-1.5-2.2 1.6-4 3.8-5.2 6.4-.9 2-1.1 4.2-1.2 6.3-.1 2.1.2 4.3.7 6.3s1.6 4 3 5.7c.5.6 1.1 1.2 1.8 1.7-1.7.6-3.5.6-5.1.2z" fill="#1b141c" stroke-width="none" opacity="1"></path></g><g id="svga-group-glasses-single-move" transform="matrix(1,0,0,1,0,0)"><g id="svga-group-glasses-single"><path id="SvgjsPath7658" d="M63.6 78.8c-1.9 3.4-1.8 10.5 1.9 16.8s14.1 6.7 20.4 3.6c6.3-3.1 8.8-9.2 9.1-13.8s-3.5-7.2-5.6-7.9c-2.1-.8-13.8-2.4-19.2-1.6-5.4.8-6.6 2.9-6.6 2.9z" fill="url(#SvgjsLinearGradient7659)" opacity="1"></path><path id="SvgjsPath7662" d="M136.2 78.8c1.9 3.4 1.8 10.5-1.9 16.8s-14.1 6.7-20.4 3.6c-6.3-3.1-8.8-9.2-9.1-13.8s3.5-7.2 5.6-7.9c2.1-.8 13.8-2.4 19.2-1.6 5.4.8 6.6 2.9 6.6 2.9z" fill="url(#SvgjsLinearGradient7663)" opacity="1"></path><path id="SvgjsPath7666" d="M122.3 102.3c-5 0-9.8-1.6-13-4.5-5-4.4-5.9-9.7-6.4-12.2-.1-.6-.2-1.1-.3-1.4-.6-1.7-1.3-2.5-2.1-2.5h-1.4c-.8 0-1.5.8-2.1 2.5-.1.3-.2.8-.3 1.4-.4 2.6-1.4 7.8-6.4 12.2-3.2 2.8-8 4.5-13 4.5-3.3 0-6.4-.7-8.6-2-5.8-3.3-7.3-10.5-7.7-13.4-.5-3.7-1.9-4.4-2.4-4.5V76c.4 0 1.6-.1 2.7-.3.1 0 6.8-1.6 13.3-1.6 1.1 0 2.1.1 3 .1 6.1.6 11.1 1.8 14.7 2.6l.8.2c2.5.6 4.3.7 5.1.7h3.2c.8 0 2.6-.1 5.1-.7l.8-.2c3.6-.8 8.6-2 14.7-2.6.9-.1 1.9-.1 3-.1 6.5 0 13.2 1.6 13.3 1.7 1.1.3 2.3.3 2.7.3v6.4c-.4.1-1.9.8-2.4 4.5-.4 2.9-1.9 10.1-7.7 13.4-2.1 1.2-5.3 1.9-8.6 1.9zm2.7-25.8c-.9 0-1.7 0-2.6.1-1.5.1-7.8.5-11.1 1.6-3.2 1.1-5.4 3.3-5.6 5.7-.3 2.8.6 6.2 2.4 9.3 1.9 3.2 4.4 5.3 7.7 6.3 2 .6 3.9.9 6 .9 1.7 0 3.5-.2 5.5-.6 3.6-.7 6.2-3.3 7.9-7.8 1.4-3.9 1.7-9.9-.4-12.6-1.5-2-4.7-2.9-9.8-2.9zm-50.2 0c-5.1 0-8.3.9-9.8 2.8-2.1 2.7-1.9 8.7-.4 12.6 1.6 4.5 4.3 7.1 7.8 7.8 2 .4 3.8.6 5.5.6 2.1 0 4-.3 6-.9 3.3-1 5.8-3 7.7-6.3 1.8-3.1 2.7-6.5 2.4-9.3-.2-2.4-2.4-4.6-5.6-5.7-3.2-1.1-9.5-1.6-11.1-1.6h-2.5z" fill="#26120b" stroke-width="none" opacity="1"></path><path id="SvgjsPath7667" d="M88.4 78.1c-3.2-1.1-9.6-1.6-11.1-1.6-.9 0-1.8-.1-2.6-.1-5.2 0-8.4.9-9.9 2.8-2.2 2.8-1.9 8.8-.5 12.7 1.7 4.5 4.3 7.2 8 7.9 2 .4 3.8.6 5.6.6 2.1 0 4-.3 6-.9 3.3-1 5.8-3.1 7.8-6.3 1.8-3.1 2.7-6.6 2.4-9.4-.2-2.4-2.4-4.6-5.7-5.7zm3.1 15c-2 3.3-4.5 5.3-7.6 6.2-1.8.5-3.7.9-5.9.9-1.6 0-3.4-.2-5.5-.6-4.1-.8-6.4-4-7.8-7.7-1.4-3.8-1.7-9.7.4-12.5 1.7-2.2 5.8-2.7 9.7-2.7.9 0 1.7 0 2.6.1 2.1.1 8 .6 11 1.6s5.3 3.1 5.6 5.6c.1 2.3-.6 5.7-2.5 9.1zM125 76.3c-.8 0-1.6 0-2.6.1-1.5.1-7.8.5-11.1 1.6s-5.5 3.3-5.7 5.8c-.3 2.8.6 6.3 2.4 9.4 1.9 3.3 4.5 5.3 7.8 6.3 2 .6 3.9.9 6 .9 1.7 0 3.5-.2 5.6-.6 3.6-.7 6.3-3.4 8-7.9 1.4-4 1.7-10-.5-12.7-1.5-1.9-4.8-2.9-9.9-2.9zm10.1 15.5c-1.4 3.8-3.7 6.9-7.8 7.7-2.1.4-3.9.6-5.5.6-2.2 0-4.1-.3-5.9-.9-3.2-.9-5.7-2.9-7.6-6.2s-2.7-6.7-2.4-9.2c.3-2.5 2.6-4.5 5.6-5.6 3-1 9-1.5 11-1.6.8 0 1.7-.1 2.6-.1 3.9 0 7.9.5 9.7 2.7 2 2.9 1.6 8.8.3 12.6zm3.3-16.3c-1.1-.3-7.4-1.7-13.3-1.7-1 0-2.1 0-3 .1-6.6.7-11.8 1.9-15.5 2.8-2.5.6-4.2.7-5.1.7h-3.2c-.9 0-2.6-.1-5.1-.7-3.7-.9-8.9-2.2-15.5-2.8-1-.1-2-.1-3-.1-5.9 0-12.2 1.4-13.3 1.7-1.3.3-2.8.3-2.8.3v6.6s1.8.2 2.4 4.4c.5 4.2 2.5 10.5 7.8 13.6 2.2 1.3 5.4 2 8.7 2 4.6 0 9.5-1.4 13.1-4.5 6.2-5.4 6.2-12.1 6.7-13.7.5-1.5 1.2-2.4 1.9-2.4h1.4c.8 0 1.4.9 1.9 2.4s.5 8.2 6.7 13.7c3.6 3.1 8.5 4.5 13.1 4.5 3.3 0 6.4-.7 8.7-2 5.3-3 7.3-9.3 7.8-13.6s2.4-4.4 2.4-4.4v-6.6s-1.5 0-2.8-.3zm2.5 6.7c-.6.2-1.9 1.1-2.4 4.6-.4 2.9-1.9 10-7.7 13.3-2.2 1.2-5.3 2-8.6 2-5 0-9.7-1.6-12.9-4.4-5-4.3-5.9-9.6-6.3-12.2-.1-.6-.2-1.1-.3-1.4-.6-1.7-1.3-2.6-2.2-2.6h-1.4c-.9 0-1.6.8-2.2 2.6-.1.3-.2.8-.3 1.4-.4 2.5-1.4 7.8-6.3 12.2-3.2 2.8-7.9 4.4-12.9 4.4-3.2 0-6.4-.7-8.6-2-5.8-3.3-7.3-10.4-7.7-13.3-.5-3.5-1.8-4.4-2.4-4.6v-6.1c.5 0 1.6-.1 2.6-.3.1 0 6.8-1.7 13.3-1.7 1.1 0 2.1.1 3 .1 6.1.6 11.1 1.8 14.7 2.6l.8.2c2.5.6 4.3.7 5.1.7h3.2c.8 0 2.6-.1 5.1-.7l.8-.2c3.6-.8 8.5-2 14.7-2.6.9-.1 1.9-.1 3-.1 6.5 0 13.2 1.6 13.3 1.7 1 .2 2.1.3 2.6.3v6.1z" fill="#070201" stroke-width="none" opacity="1"></path></g></g></g></g></g><rect id="svga-credit-rect" width="200" height="15" x="0" y="185" fill="#ecf0f1" opacity="0.5" style="display: none;"></rect><text id="svga-credit-text" font-family="Avenir Next, Roboto, Helvetica, Arial, sans-serif" font-size="10px" text-anchor="start" font-weight="400" size="10px" anchor="start" weight="400" fill="#333333" x="34.02062225341797" y="182.60824704170227" style="display: none;"><tspan id="SvgjsTspan4184" dy="13" x="34.02062225341797">Created on AvatarMaker.com</tspan></text></g><defs id="SvgjsDefs4131"><linearGradient id="SvgjsLinearGradient4772" x1="99.7642" y1="100.53" x2="99.7642" y2="113.2523" gradientUnits="userSpaceOnUse" class="svga-on-canvas-nose-gradient-single-0-null"><stop id="SvgjsStop4773" stop-opacity="0" stop-color="#f0c7b1" offset="0" ></stop><stop id="SvgjsStop4774" stop-opacity="1" stop-color="#e8b9a0" offset="1" ></stop></linearGradient><linearGradient id="SvgjsLinearGradient4834" x1="99.7642" y1="100.53" x2="99.7642" y2="113.2523" gradientUnits="userSpaceOnUse" class="svga-on-canvas-nose-gradient-single-0-null"><stop id="SvgjsStop4835" stop-opacity="0" stop-color="#f0c7b1" offset="0" ></stop><stop id="SvgjsStop4836" stop-opacity="1" stop-color="#e8b9a0" offset="1" ></stop></linearGradient><linearGradient id="SvgjsLinearGradient7573" x1="87.7268" y1="112.9923" x2="87.7268" y2="86.5667" gradientTransform="matrix(0.9926 -1.200000e-02 0 -1 -5.897 192.4354)" gradientUnits="userSpaceOnUse" class="svga-on-canvas-glasses-gradient-single-0-null"><stop id="SvgjsStop7574" stop-opacity="1" stop-color="#3d2d1c" offset="0.0208" ></stop><stop id="SvgjsStop7575" stop-opacity="0.6291" stop-color="#402e1c" offset="0.3825" ></stop><stop id="SvgjsStop7576" stop-opacity="0.3897" stop-color="#48321d" offset="0.6159" ></stop><stop id="SvgjsStop7577" stop-opacity="0.1881" stop-color="#57381f" offset="0.8124" ></stop><stop id="SvgjsStop7578" stop-opacity="7.593334e-03" stop-color="#6c4221" offset="0.9884" ></stop><stop id="SvgjsStop7579" stop-opacity="0" stop-color="#6d4221" offset="0.9958" ></stop></linearGradient><linearGradient id="SvgjsLinearGradient7581" x1="-1744.0752" y1="112.7015" x2="-1744.0752" y2="87.2129" gradientTransform="matrix(-0.9926 1.200000e-02 0 -1 -1611.6344 211.8458)" gradientUnits="userSpaceOnUse" class="svga-on-canvas-glasses-gradient-single-1-null"><stop id="SvgjsStop7582" stop-opacity="1" stop-color="#3d2d1c" offset="0.0208" ></stop><stop id="SvgjsStop7583" stop-opacity="0.6291" stop-color="#402e1c" offset="0.3825" ></stop><stop id="SvgjsStop7584" stop-opacity="0.3897" stop-color="#48321d" offset="0.6159" ></stop><stop id="SvgjsStop7585" stop-opacity="0.1881" stop-color="#57381f" offset="0.8124" ></stop><stop id="SvgjsStop7586" stop-opacity="7.593334e-03" stop-color="#6c4221" offset="0.9884" ></stop><stop id="SvgjsStop7587" stop-opacity="0" stop-color="#6d4221" offset="0.9958" ></stop></linearGradient><linearGradient id="SvgjsLinearGradient7659" x1="78.6326" y1="126.359" x2="78.6326" y2="100.9055" gradientTransform="matrix(1 0 0 -1 0 202)" gradientUnits="userSpaceOnUse" class="svga-on-canvas-glasses-gradient-single-0-null"><stop id="SvgjsStop7660" stop-opacity="1" stop-color="#000000" offset="0" ></stop><stop id="SvgjsStop7661" stop-opacity="0" stop-color="#000000" offset="1" ></stop></linearGradient><linearGradient id="SvgjsLinearGradient7663" x1="-1739.1173" y1="126.359" x2="-1739.1173" y2="100.9055" gradientTransform="matrix(-1 0 0 -1 -1618 202)" gradientUnits="userSpaceOnUse" class="svga-on-canvas-glasses-gradient-single-1-null"><stop id="SvgjsStop7664" stop-opacity="1" stop-color="#000000" offset="0" ></stop><stop id="SvgjsStop7665" stop-opacity="0" stop-color="#000000" offset="1" ></stop></linearGradient></defs></svg>